<?xml version="1.0" encoding="UTF-8"?>
<svg xmlns="http://www.w3.org/2000/svg" xmlns:xlink="http://www.w3.org/1999/xlink" width="36px" height="35px" viewBox="0 0 36 35" version="1.1">
<g id="surface1">
<path style=" stroke:none;fill-rule:evenodd;fill:rgb(14.117647%,16.078431%,18.431373%);fill-opacity:1;" d="M 17.949219 0 C 8.582031 0 1.011719 8.019531 1.011719 17.941406 C 1.011719 25.878906 5.863281 32.589844 12.59375 34.96875 C 13.433594 35.140625 13.742188 34.582031 13.742188 34.105469 C 13.742188 33.6875 13.714844 32.261719 13.714844 30.78125 C 9.003906 31.847656 8.023438 28.636719 8.023438 28.636719 C 7.265625 26.5625 6.144531 26.023438 6.144531 26.023438 C 4.601562 24.925781 6.257812 24.925781 6.257812 24.925781 C 7.96875 25.042969 8.863281 26.769531 8.863281 26.769531 C 10.378906 29.503906 12.820312 28.730469 13.800781 28.25 C 13.941406 27.09375 14.386719 26.289062 14.863281 25.84375 C 11.109375 25.429688 7.152344 23.886719 7.152344 16.992188 C 7.152344 15.035156 7.828125 13.425781 8.890625 12.183594 C 8.722656 11.734375 8.132812 9.894531 9.0625 7.425781 C 9.0625 7.425781 10.492188 6.953125 13.714844 9.269531 C 15.097656 8.878906 16.519531 8.675781 17.949219 8.675781 C 19.378906 8.675781 20.839844 8.882812 22.179688 9.269531 C 25.40625 6.953125 26.835938 7.425781 26.835938 7.425781 C 27.757812 9.894531 27.171875 11.734375 27.003906 12.183594 C 28.097656 13.425781 28.742188 15.035156 28.742188 16.992188 C 28.742188 23.886719 24.792969 25.402344 21.003906 25.84375 C 21.625 26.410156 22.15625 27.480469 22.15625 29.171875 C 22.15625 31.578125 22.125 33.511719 22.125 34.105469 C 22.125 34.582031 22.433594 35.140625 23.273438 34.96875 C 30.003906 32.589844 34.855469 25.878906 34.855469 17.941406 C 34.882812 8.019531 27.285156 0 17.949219 0 Z M 17.949219 0 "/>
</g>
</svg>
