<svg width="16px" height="16px" viewBox="0 0 16 16" xmlns="http://www.w3.org/2000/svg" fill="none">
    <g id="SVGRepo_bgCarrier" stroke-width="0"/>
    <g id="SVGRepo_tracerCarrier" stroke-linecap="round" stroke-linejoin="round" stroke="#CCCCCC" stroke-width="0.032" style="--darkreader-inline-stroke: #c8c3bc;"/>
    <g id="SVGRepo_iconCarrier">
        <g fill="#000000" style="--darkreader-inline-fill: #000000;">
            <path d="M5 4a1 1 0 000 2h.01a1 1 0 000-2H5zM7 8a1 1 0 011-1h.01a1 1 0 010 2H8a1 1 0 01-1-1zM11.01 10a1 1 0 100 2h.01a1 1 0 100-2h-.01z"/>
            <path fill-rule="evenodd" d="M3.25 1A2.25 2.25 0 001 3.25v9.5A2.25 2.25 0 003.25 15h9.5A2.25 2.25 0 0015 12.75v-9.5A2.25 2.25 0 0012.75 1h-9.5zM2.5 3.25a.75.75 0 01.75-.75h9.5a.75.75 0 01.75.75v9.5a.75.75 0 01-.75.75h-9.5a.75.75 0 01-.75-.75v-9.5z" clip-rule="evenodd"/>
        </g>
    </g>
</svg>
